<?xml version="1.0" encoding="UTF-8"?>
<svg width="13px" height="23px" viewBox="0 0 13 23" version="1.1" xmlns="http://www.w3.org/2000/svg" xmlns:xlink="http://www.w3.org/1999/xlink">
    <!-- Generator: Sketch 55.2 (78181) - https://sketchapp.com -->
    <title>Path</title>
    <desc>Created with Sketch.</desc>
    <g id="Page-1" stroke="none" stroke-width="1" fill="none" fill-rule="evenodd">
        <g id="Error-Copy" transform="translate(-742.000000, -436.000000)" stroke="#FFFFFF">
            <path d="M748.189515,438.450898 C749.264714,440.153147 759.583592,457.339523 750.769239,457.525037 C741.691744,457.71609 741.001636,451.428301 748.100325,439.136224 C749.80831,436.17868 751.782424,444.975643 752.855511,448.194771 C753.453976,449.990095 753.239631,451.975319 753.003838,453.846162 C752.873591,454.879572 752.639645,457.376714 751.778444,456.740483 C749.631457,455.154348 749.470664,443.002632 749.57293,442.892999 C753.298431,438.899124 752.919979,461.689483 750.366915,457.027967 C748.075885,452.844888 748.391785,447.648196 748.790578,442.941222 C749.427984,435.417882 749.973315,439.136224 750.5356,439.136224 C751.892534,439.136224 752.272787,445.455769 751.918046,447.804348 C751.593697,449.951714 750.831831,452.033604 749.973315,454.041837 C749.631481,454.841452 746.750342,455.222852 746.624827,454.367344 C745.926424,449.607025 747.674154,446.489178 748.163339,441.705038 C749.928008,424.446929 745.677916,457.17011 750.5356,455.102748 C756.075899,452.744874 748.483051,446.249716 748.23314,445.82256 C747.543874,444.644441 748.319904,440.429897 748.174003,441.772736 C747.671089,446.401462 744.374692,448.458009 745.075595,453.063116 C745.776497,457.668223 749.361049,456.365982 750.332984,455.957783 C750.840435,455.74466 750.332984,454.89749 750.332984,454.367344" id="Path"></path>
        </g>
    </g>
</svg>